<svg height="512pt" viewBox="0 -32 512.00035 512" width="512pt" xmlns="http://www.w3.org/2000/svg"><path d="m158.082031 337.335938c0 4.148437 3.363281 7.511718 7.507813 7.511718h274.792968c3.167969 0 5.996094-1.988281 7.066407-4.96875 1.070312-2.980468.160156-6.3125-2.28125-8.328125l-184.386719-152.34375c-2.773438-2.296875-6.789062-2.296875-9.566406 0l-184.382813 152.339844c-2.4375 2.019531-3.351562 5.351563-2.28125 8.332031 1.070313 2.980469 3.898438 4.964844 7.066407 4.964844h63.9375c4.148437 0 7.507812-3.359375 7.507812-7.507812 0-4.148438-3.359375-7.507813-7.507812-7.507813h-43.058594l163.503906-135.09375 163.507812 135.09375h-253.917968c-4.144532 0-7.507813 3.363281-7.507813 7.507813zm0 0"/><path d="m499.578125 324.554688-221.875-183.320313c-4.097656-3.382813-8.800781-5.660156-13.710937-6.839844v-34.59375c24.121093-3.636719 42.671874-24.5 42.671874-49.621093 0-27.667969-22.511718-50.179688-50.179687-50.179688-27.671875 0-50.183594 22.511719-50.183594 50.179688 0 4.148437 3.363281 7.511718 7.511719 7.511718 4.144531 0 7.507812-3.363281 7.507812-7.511718 0-19.386719 15.773438-35.160157 35.164063-35.160157 19.386719 0 35.160156 15.773438 35.160156 35.160157 0 19.390624-15.773437 35.164062-35.160156 35.164062-4.148437 0-7.511719 3.363281-7.511719 7.511719v41.320312c-5.257812 1.101563-10.308594 3.453125-14.675781 7.058594l-41.679687 34.441406c-3.199219 2.640625-3.648438 7.375-1.007813 10.570313 2.640625 3.195312 7.375 3.648437 10.574219 1.007812l41.679687-34.441406c7.035157-5.808594 17.242188-5.808594 24.273438 0l221.875 183.316406c7.613281 6.292969 7.984375 15.046875 5.792969 21.140625-2.191407 6.09375-8.050782 12.609375-17.929688 12.609375h-443.75c-9.875 0-15.738281-6.515625-17.929688-12.609375-2.191406-6.09375-1.820312-14.847656 5.792969-21.140625l158.449219-130.910156c3.195312-2.640625 3.644531-7.375 1.003906-10.574219-2.640625-3.195312-7.375-3.648437-10.570312-1.003906l-158.449219 130.914063c-11.21875 9.269531-15.285156 24.105468-10.359375 37.800781 4.925781 13.691406 17.511719 22.539062 32.0625 22.539062h19.019531v18.886719h-28.738281c-4.148438 0-7.507812 3.363281-7.507812 7.507812 0 4.148438 3.359374 7.511719 7.507812 7.511719h28.738281v22.390625c0 4.144532 3.363281 7.507813 7.511719 7.507813h40.0625c4.148438 0 7.507812-3.363281 7.507812-7.507813v-22.390625h284.582032v22.390625c0 4.144532 3.363281 7.507813 7.511718 7.507813h40.0625c4.148438 0 7.511719-3.363281 7.511719-7.507813v-22.390625h37.25c4.148438 0 7.511719-3.363281 7.511719-7.511719 0-4.144531-3.363281-7.507812-7.511719-7.507812h-37.25v-18.886719h29.980469c14.550781 0 27.136719-8.847656 32.0625-22.539062 4.925781-13.695313.859375-28.53125-10.359375-37.800781zm-431.414063 60.339843h25.046876v18.886719h-25.046876zm25.046876 48.789063h-25.046876v-14.882813h25.046876zm15.015624-29.902344v-18.886719h284.582032v18.886719zm324.648438 29.902344h-25.046875v-14.882813h25.046875zm0-29.902344h-25.046875v-18.886719h25.046875zm0 0"/></svg>