<svg id="Layer_1" data-name="Layer 1" xmlns="http://www.w3.org/2000/svg" viewBox="0 0 144 126"><defs><style>.cls-1,.cls-3{fill:#0e153e;}.cls-1,.cls-2{fill-rule:evenodd;}.cls-2,.cls-4{fill:#9ae0d0;}</style></defs><title>c2c-logos-rgb-full-color</title><path class="cls-1" d="M90.85,22.84c-5-4.93-11.18-7.61-17.64-9.62-5.26-1.65-10.65-2.91-16-4.4C51.3,7.15,45.16,5.64,40.11,2.13c-2.7-1.87-2.56-1-2.92.93A31.26,31.26,0,0,0,37,10.49c.19,5.85,3.21,10.39,7,14.48a8.73,8.73,0,0,1,2.62,5.22c.59,5.55,2.69,9.23,8,11.67,1.48.68,7.32-3.2,6.6-3.49-5-1.94-6.89-3.57-8.83-8.55-.1-.24.09-.58.14-.88l.7.15a36.63,36.63,0,0,0,14.65,1.07c1.26-.21,2.79.45,3.78-.94-1-.77-4.1-.87-4.4-.93-7-1.3-13.53-3.53-19-8.51-2.29-2.11-4.34-5.92-4.15-8.67.37.23.72.48,1.1.68,1.88,1,3.74,2,5.66,2.9,5.45,2.5,11.4,3.49,17,5.64,3.86,1.49,8,2.16,11.93,3.83a31,31,0,0,1,10.61,7.58c1.72,1.88,2.85,4.31,4.25,6.49a71,71,0,0,0-.51-8.58C94,28.35,92.49,24.44,90.85,22.84Z"/><path class="cls-2" d="M94.38,66.75a17.17,17.17,0,0,1-13.36,7c-1.61,0-3-1.39-4.73-.41a42.76,42.76,0,0,1-4.64,1.86c-5.36,2.34-10.21,1.5-14.75-1.75a8.74,8.74,0,0,0-5.64-1.52c-5.6.14-11-.63-15.49-4.38-1.9-1.58-4.16-3.11-5.41-5.1s-.93-1.92,1.25-2.79A96.43,96.43,0,0,0,48,51.33c4.65-3,9.18-6.16,13.91-9,5.81-3.48,11.86-6.76,18.92-6.76a17.72,17.72,0,0,1,7.34,2c2.45,1.45,4.33,3.58,6.57,5.36-2.56-.4-4.95-1.21-7.5-1.17a30.89,30.89,0,0,0-12.72,2.87C70.69,46.42,67.4,49.1,63.72,51c-5.33,2.75-10,6.53-15.52,8.94-1.94.85-4,1.54-5.93,2.29-.4.16-.83.25-1.24.37,1.29,2.12,6.14,3,9.23,2.68,7.33-.74,13.34-4.12,19-8.49.24-.19,2.36-2.42,3.62-2.66.38,1.66-1.13,2.36-1.82,3.44A36.69,36.69,0,0,1,60.49,67.79l-.58.42c.19.24.32.61.56.69a17.79,17.79,0,0,0,14.75-.69c3.39-1.72,6.78-3.55,8.86-7,.2-.33,2.74-4,3.16-4.12a4.76,4.76,0,0,1,1.25,0c-.07.29-2.07,4.13-2.23,4.36-1.32,1.83-2.68,3.64-4,5.47a2.65,2.65,0,0,0-.22.87,7,7,0,0,0,.8.07,14.76,14.76,0,0,0,9.09-4c2.67-2.31,5.8-8.65,6.78-12,.1-.33.71-.5,1.08-.75,0,.29,0,.58,0,.87C99.55,55.88,96.87,63.89,94.38,66.75Z"/><path class="cls-3" d="M115.27,17.47a.39.39,0,0,0-.1-.08,6.78,6.78,0,0,0-.11-2.29,10,10,0,0,0-1.53-3.52,9.71,9.71,0,0,0-2.86-2.82,9.51,9.51,0,0,0-3.52-1.36,9.71,9.71,0,0,0-3.79.12,10.81,10.81,0,0,0-3.69,1.63c-.18.12-.34.25-.51.38A9.31,9.31,0,0,0,95.64,14a10.81,10.81,0,0,0-.72,4A10.89,10.89,0,0,0,95.66,22c.06.14.13.28.2.42a9.66,9.66,0,0,0,1.28,2.1,7.63,7.63,0,0,0,.59.67,9.51,9.51,0,0,0,3.12,2.11,29.19,29.19,0,0,0,2.84.8,4,4,0,0,1,.16,1.64,33.23,33.23,0,0,1-1.25,7A44.5,44.5,0,0,1,100,42.61a2.16,2.16,0,0,0,1.72,2.45,42.69,42.69,0,0,0,3.19-7,42,42,0,0,0,1.28-8c.07-.74.12-1.42.12-2.06h0a5.44,5.44,0,0,1,0-.57,2.68,2.68,0,0,1-.07-.27c0-.08,0-.21-.06-.19,0-.15-.09-.3-.12-.45s-.2-.2-.31-.31a20.72,20.72,0,0,1-4-.83,7.15,7.15,0,0,1-2.31-1.7,7,7,0,0,1-.51-.7,7.51,7.51,0,0,1-1-1.83,9,9,0,0,1-.47-1.94,11.7,11.7,0,0,1-.08-1.2,8.66,8.66,0,0,1,.55-3c0-.14.12-.28.18-.41s.17-.37.28-.56.24-.38.37-.57a8.83,8.83,0,0,1,2.3-2.21,8.24,8.24,0,0,1,2-1,6.91,6.91,0,0,1,.81-.24,7.88,7.88,0,0,1,3-.18,7.55,7.55,0,0,1,2.75.94,6.6,6.6,0,0,1,2.2,2.08,7.63,7.63,0,0,1,.42.73,6.41,6.41,0,0,1,.59,1.81,5.53,5.53,0,0,1,0,1.86,1.75,1.75,0,0,0-.47.35,2.09,2.09,0,1,0,3-.05Z"/><path class="cls-3" d="M18.32,97.15a.41.41,0,0,1,.29.13l.76.83a6.15,6.15,0,0,1-2.14,1.59,7.23,7.23,0,0,1-3,.57,7,7,0,0,1-2.81-.54,6,6,0,0,1-2.15-1.5,6.53,6.53,0,0,1-1.38-2.31,8.57,8.57,0,0,1-.49-3,8.13,8.13,0,0,1,.52-3,6.73,6.73,0,0,1,1.48-2.32,6.59,6.59,0,0,1,2.27-1.51,7.91,7.91,0,0,1,2.93-.53,6.81,6.81,0,0,1,2.72.49,7,7,0,0,1,2,1.33l-.63.89a.61.61,0,0,1-.16.16.4.4,0,0,1-.26.07.48.48,0,0,1-.28-.1l-.34-.23-.47-.3a3.82,3.82,0,0,0-.64-.3,7,7,0,0,0-.86-.24,6.39,6.39,0,0,0-1.13-.09,5.54,5.54,0,0,0-2.11.39,4.81,4.81,0,0,0-1.64,1.13A5.21,5.21,0,0,0,9.74,90.6,6.94,6.94,0,0,0,9.36,93a7.09,7.09,0,0,0,.38,2.39,5.33,5.33,0,0,0,1,1.77,4.36,4.36,0,0,0,1.58,1.11,5.07,5.07,0,0,0,2,.38,8,8,0,0,0,1.15-.08,4.46,4.46,0,0,0,.94-.23,3.85,3.85,0,0,0,.81-.41A7.32,7.32,0,0,0,18,97.3.49.49,0,0,1,18.32,97.15Z"/><path class="cls-3" d="M26.69,98.48h6.2v1.63H24.75V85.78h1.94Z"/><path class="cls-3" d="M50.82,93a8.23,8.23,0,0,1-.51,3,6.79,6.79,0,0,1-1.44,2.32,6.31,6.31,0,0,1-2.24,1.5,7.95,7.95,0,0,1-5.76,0,6.27,6.27,0,0,1-2.23-1.5A6.79,6.79,0,0,1,37.2,95.9a8.23,8.23,0,0,1-.51-3,8.33,8.33,0,0,1,.51-3,6.89,6.89,0,0,1,1.44-2.32,6.43,6.43,0,0,1,2.23-1.51,8,8,0,0,1,5.76,0,6.47,6.47,0,0,1,2.24,1.51A6.89,6.89,0,0,1,50.31,90,8.33,8.33,0,0,1,50.82,93Zm-2,0a7.28,7.28,0,0,0-.36-2.37,5.1,5.1,0,0,0-1-1.78,4.43,4.43,0,0,0-1.6-1.11,5.82,5.82,0,0,0-4.19,0,4.55,4.55,0,0,0-1.61,1.11,5.1,5.1,0,0,0-1,1.78A7.28,7.28,0,0,0,38.67,93,7.18,7.18,0,0,0,39,95.31a5,5,0,0,0,1,1.77,4.31,4.31,0,0,0,1.61,1.11,5.82,5.82,0,0,0,4.19,0,4.19,4.19,0,0,0,1.6-1.11,5,5,0,0,0,1-1.77A7.18,7.18,0,0,0,48.83,93Z"/><path class="cls-3" d="M63.75,88a.7.7,0,0,1-.19.22.42.42,0,0,1-.26.08.74.74,0,0,1-.4-.17c-.15-.11-.34-.24-.57-.38a4.66,4.66,0,0,0-.83-.37,3.61,3.61,0,0,0-1.17-.17,3.66,3.66,0,0,0-1.15.17,2.64,2.64,0,0,0-.84.48,1.92,1.92,0,0,0-.5.7,2.34,2.34,0,0,0-.17.88,1.64,1.64,0,0,0,.29,1,2.59,2.59,0,0,0,.78.68,6.18,6.18,0,0,0,1.1.48L61.1,92c.43.15.85.31,1.26.49a4.58,4.58,0,0,1,1.1.7,3,3,0,0,1,.78,1,3.4,3.4,0,0,1,.3,1.5,4.87,4.87,0,0,1-.32,1.76A4.09,4.09,0,0,1,63.28,99a4.25,4.25,0,0,1-1.51,1,5.57,5.57,0,0,1-2,.35,6.2,6.2,0,0,1-2.54-.51,5.9,5.9,0,0,1-2-1.36l.56-.92a.86.86,0,0,1,.19-.19.48.48,0,0,1,.26-.07.78.78,0,0,1,.48.22,7.78,7.78,0,0,0,.67.5,5.26,5.26,0,0,0,1,.49,3.93,3.93,0,0,0,1.41.23A3.61,3.61,0,0,0,61,98.47a2.65,2.65,0,0,0,.91-.54,2.27,2.27,0,0,0,.58-.82,2.83,2.83,0,0,0,.2-1.07,1.78,1.78,0,0,0-.3-1.07,2.46,2.46,0,0,0-.77-.69,5.29,5.29,0,0,0-1.1-.48l-1.26-.4A11.21,11.21,0,0,1,58,92.93a4,4,0,0,1-1.09-.7,3.33,3.33,0,0,1-.78-1.08,4.18,4.18,0,0,1,0-3.06A4,4,0,0,1,57,86.83,4,4,0,0,1,58.4,86a5.11,5.11,0,0,1,1.9-.33,6.14,6.14,0,0,1,2.19.38,5,5,0,0,1,1.73,1.1Z"/><path class="cls-3" d="M79.05,85.78v1.58H72.17v4.76h5.57v1.52H72.17v4.89h6.88v1.58H70.22V85.78Z"/><path class="cls-3" d="M95,85.78v1.63H90.37v12.7H88.43V87.41H83.78V85.78Z"/><path class="cls-3" d="M117.06,85.78v1.63h-4.63v12.7h-1.94V87.41h-4.65V85.78Z"/><path class="cls-3" d="M134.9,93a8.23,8.23,0,0,1-.51,3A6.79,6.79,0,0,1,133,98.22a6.27,6.27,0,0,1-2.23,1.5,8,8,0,0,1-5.77,0,6.36,6.36,0,0,1-2.23-1.5,6.79,6.79,0,0,1-1.44-2.32,8.23,8.23,0,0,1-.51-3,8.33,8.33,0,0,1,.51-3,6.89,6.89,0,0,1,1.44-2.32A6.52,6.52,0,0,1,125,86.16a8,8,0,0,1,5.77,0A6.43,6.43,0,0,1,133,87.67,6.89,6.89,0,0,1,134.39,90,8.33,8.33,0,0,1,134.9,93Zm-2,0a7.28,7.28,0,0,0-.36-2.37,5.1,5.1,0,0,0-1-1.78,4.43,4.43,0,0,0-1.6-1.11,5.38,5.38,0,0,0-2.1-.39,5.44,5.44,0,0,0-2.09.39,4.51,4.51,0,0,0-1.6,1.11,5.11,5.11,0,0,0-1,1.78,7.28,7.28,0,0,0-.36,2.37,7.18,7.18,0,0,0,.36,2.36,5,5,0,0,0,1,1.77,4.27,4.27,0,0,0,1.6,1.11,5.44,5.44,0,0,0,2.09.39,5.38,5.38,0,0,0,2.1-.39,4.19,4.19,0,0,0,1.6-1.11,5,5,0,0,0,1-1.77A7.18,7.18,0,0,0,132.91,93Z"/><path class="cls-4" d="M19.56,120.74a.42.42,0,0,1,.32.15l.84.91a6.8,6.8,0,0,1-2.35,1.75,8,8,0,0,1-3.33.63,7.84,7.84,0,0,1-3.09-.59,6.84,6.84,0,0,1-2.37-1.65,7.53,7.53,0,0,1-1.51-2.55,9.51,9.51,0,0,1-.54-3.27,9,9,0,0,1,.57-3.26,7.49,7.49,0,0,1,1.63-2.55,7.06,7.06,0,0,1,2.5-1.66,8.55,8.55,0,0,1,3.22-.59,7.53,7.53,0,0,1,3,.54,7.67,7.67,0,0,1,2.24,1.46L20,111a.52.52,0,0,1-.18.18.45.45,0,0,1-.28.07.51.51,0,0,1-.3-.1l-.38-.26-.52-.33a4.76,4.76,0,0,0-.71-.33,6,6,0,0,0-.94-.26,6.55,6.55,0,0,0-1.24-.1,6,6,0,0,0-2.32.43,5.31,5.31,0,0,0-1.81,1.24,5.58,5.58,0,0,0-1.18,2,7.51,7.51,0,0,0-.42,2.58,7.64,7.64,0,0,0,.42,2.63,6,6,0,0,0,1.15,2A4.92,4.92,0,0,0,13,121.92a5.46,5.46,0,0,0,2.15.42,9.7,9.7,0,0,0,1.27-.08,5.46,5.46,0,0,0,1-.26,4.64,4.64,0,0,0,.89-.45,7.42,7.42,0,0,0,.83-.64A.55.55,0,0,1,19.56,120.74Z"/><path class="cls-4" d="M28.1,122.21h6.82V124H26V108.24H28.1Z"/><path class="cls-4" d="M49.6,108.24V110H42v5.23h6.13v1.67H42v5.38H49.6V124H39.89V108.24Z"/><path class="cls-4" d="M68.8,124H67.15a.74.74,0,0,1-.46-.14.91.91,0,0,1-.27-.37L65,119.69H57.88l-1.48,3.8a.9.9,0,0,1-.26.36.71.71,0,0,1-.46.15H54l6.3-15.76H62.5Zm-10.33-5.85h5.89l-2.48-6.42a11.39,11.39,0,0,1-.47-1.48c-.08.3-.16.58-.24.83s-.15.48-.22.67Z"/><path class="cls-4" d="M75.11,108.31a1,1,0,0,1,.31.29l9.13,11.88c0-.19,0-.38,0-.56s0-.35,0-.52V108.24h1.87V124H85.29a.87.87,0,0,1-.42-.09,1.12,1.12,0,0,1-.34-.29l-9.12-11.87c0,.18,0,.36,0,.54s0,.33,0,.48V124H73.59V108.24h1.1A.91.91,0,0,1,75.11,108.31Z"/><path class="cls-4" d="M102.66,108.24V110H95.09v5.23h6.13v1.67H95.09v5.38h7.57V124H93V108.24Z"/><path class="cls-4" d="M110.27,117.42V124h-2.12V108.24h4.45a9.86,9.86,0,0,1,2.59.3,5,5,0,0,1,1.8.87,3.69,3.69,0,0,1,1.05,1.38,4.78,4.78,0,0,1,.34,1.81,4.5,4.5,0,0,1-.27,1.57,4.15,4.15,0,0,1-.76,1.3,4.57,4.57,0,0,1-1.22,1,5.87,5.87,0,0,1-1.63.62,2.33,2.33,0,0,1,.7.67l4.6,6.26h-1.9a.93.93,0,0,1-.85-.45L113,117.92a1.2,1.2,0,0,0-.41-.38,1.44,1.44,0,0,0-.66-.12Zm0-1.55h2.23a5.49,5.49,0,0,0,1.65-.22,3.47,3.47,0,0,0,1.19-.64,2.69,2.69,0,0,0,.72-1,3.22,3.22,0,0,0,.24-1.26,2.53,2.53,0,0,0-.93-2.13,4.54,4.54,0,0,0-2.77-.71h-2.33Z"/><path class="cls-4" d="M132.91,110.7a1.1,1.1,0,0,1-.21.25.5.5,0,0,1-.29.08.72.72,0,0,1-.43-.19c-.17-.12-.37-.26-.63-.41a4.85,4.85,0,0,0-.91-.41,3.81,3.81,0,0,0-1.29-.19,4.09,4.09,0,0,0-1.27.19,2.75,2.75,0,0,0-.92.53,2.18,2.18,0,0,0-.55.77,2.4,2.4,0,0,0-.19,1,1.81,1.81,0,0,0,.32,1.09,2.83,2.83,0,0,0,.86.74,6.41,6.41,0,0,0,1.21.54l1.39.46c.47.16.93.35,1.39.55a4.85,4.85,0,0,1,1.21.76,3.54,3.54,0,0,1,.85,1.13,3.73,3.73,0,0,1,.33,1.65,5.48,5.48,0,0,1-.35,2,4.51,4.51,0,0,1-1,1.57,4.88,4.88,0,0,1-1.66,1.06,6.08,6.08,0,0,1-2.24.39,6.85,6.85,0,0,1-2.79-.56,6.5,6.5,0,0,1-2.15-1.5l.61-1a.88.88,0,0,1,.22-.21.54.54,0,0,1,.28-.08.87.87,0,0,1,.53.25,8,8,0,0,0,.74.54,6,6,0,0,0,1.08.55,4.37,4.37,0,0,0,1.54.24,4.1,4.1,0,0,0,1.36-.2,2.91,2.91,0,0,0,1-.59,2.64,2.64,0,0,0,.64-.91,3.14,3.14,0,0,0,.22-1.18,2,2,0,0,0-.33-1.17,2.61,2.61,0,0,0-.85-.76,5.88,5.88,0,0,0-1.21-.53l-1.38-.44a13.65,13.65,0,0,1-1.39-.52,4.4,4.4,0,0,1-1.2-.77,3.44,3.44,0,0,1-.85-1.18,4.46,4.46,0,0,1,0-3.37,4,4,0,0,1,.94-1.39,4.67,4.67,0,0,1,1.52-1,5.6,5.6,0,0,1,2.08-.36,6.63,6.63,0,0,1,2.41.42,5.6,5.6,0,0,1,1.91,1.21Z"/></svg>